<?xml version="1.0" standalone="no"?>
<!DOCTYPE svg PUBLIC "-//W3C//DTD SVG 20010904//EN"
 "http://www.w3.org/TR/2001/REC-SVG-20010904/DTD/svg10.dtd">
<svg version="1.0" xmlns="http://www.w3.org/2000/svg"
 width="827.000000pt" height="152.000000pt" viewBox="0 0 827.000000 152.000000"
 preserveAspectRatio="xMidYMid meet">

<g transform="translate(0.000000,152.000000) scale(0.100000,-0.100000)"
fill="#000000" stroke="none">
<path d="M4931 1509 c-109 -19 -212 -95 -263 -194 -52 -99 -63 -254 -29 -366
40 -128 147 -233 265 -260 78 -17 220 -8 279 19 251 112 306 512 96 706 -91
85 -215 119 -348 95z m185 -155 c106 -55 153 -242 99 -395 -33 -94 -102 -143
-201 -143 -88 0 -147 37 -189 119 -27 54 -30 67 -30 159 0 88 3 108 26 157 27
58 75 103 126 119 43 14 125 6 169 -16z"/>
<path d="M6857 1510 c-74 -13 -149 -54 -201 -110 -120 -128 -148 -337 -69
-513 34 -75 121 -157 198 -186 78 -29 212 -29 292 0 104 39 187 144 207 262
l7 37 -84 0 -85 0 -11 -44 c-12 -50 -50 -100 -92 -121 -35 -19 -129 -19 -172
-1 -98 41 -153 184 -127 335 22 132 98 205 215 205 89 -1 138 -31 170 -107
l15 -37 80 0 c89 0 92 3 68 71 -28 84 -108 162 -196 193 -53 19 -156 26 -215
16z"/>
<path d="M10 1495 c0 -4 59 -130 130 -282 72 -151 134 -288 137 -304 12 -63
-56 -105 -133 -81 l-34 10 0 -69 c0 -65 2 -70 26 -79 14 -6 44 -10 67 -10 95
0 155 35 212 125 24 37 282 584 322 683 4 9 -17 12 -84 12 l-90 0 -88 -210
c-48 -116 -92 -209 -97 -208 -6 2 -49 96 -97 208 l-88 205 -91 3 c-51 1 -92 0
-92 -3z"/>
<path d="M1046 1438 c-3 -35 -8 -164 -11 -288 -3 -124 -10 -242 -15 -262 -15
-53 -55 -81 -102 -74 l-38 6 0 -64 c0 -74 3 -76 86 -76 167 0 233 124 234 436
0 61 3 139 6 173 l7 61 108 0 109 0 0 -330 0 -330 85 0 85 0 0 405 0 405 -274
0 -274 0 -6 -62z"/>
<path d="M1880 1095 l0 -405 173 0 c209 0 294 12 360 48 90 48 133 155 109
269 -17 84 -50 126 -126 163 -60 30 -73 32 -205 37 l-141 6 0 143 0 144 -85 0
-85 0 0 -405z m451 -63 c24 -26 29 -41 29 -81 0 -94 -47 -121 -212 -121 l-98
0 0 121 0 121 126 -4 126 -3 29 -33z"/>
<path d="M2940 1489 c-57 -11 -129 -56 -157 -97 -12 -18 -26 -56 -33 -84 -23
-109 26 -216 119 -259 28 -13 50 -29 51 -35 0 -11 -29 -51 -177 -241 l-64 -83
105 0 106 0 120 160 120 160 55 0 55 0 0 -160 0 -160 85 0 85 0 0 405 0 405
-212 -1 c-117 -1 -233 -5 -258 -10z m300 -240 l0 -121 -123 4 c-100 3 -129 8
-157 24 -40 23 -57 69 -46 128 12 64 63 82 234 85 l92 1 0 -121z"/>
<path d="M3690 1095 l0 -405 85 0 85 0 0 175 0 175 170 0 170 0 0 -175 0 -175
85 0 85 0 0 405 0 405 -85 0 -85 0 0 -155 0 -155 -170 0 -170 0 0 155 0 155
-85 0 -85 0 0 -405z"/>
<path d="M5650 1095 l0 -407 238 4 c253 5 274 9 349 59 61 42 86 101 81 193
-3 61 -8 79 -31 109 -15 21 -42 44 -60 53 -18 9 -34 18 -36 20 -2 2 14 21 36
42 49 47 68 110 54 174 -14 60 -39 89 -106 123 l-60 30 -232 3 -233 4 0 -407z
m396 264 c52 -13 74 -40 74 -87 0 -79 -43 -102 -195 -102 l-105 0 0 100 0 100
91 0 c49 0 110 -5 135 -11z m52 -323 c39 -20 52 -44 52 -96 0 -90 -37 -110
-210 -110 l-120 0 0 116 0 117 123 -5 c86 -4 133 -11 155 -22z"/>
<path d="M7540 1095 l0 -405 80 0 80 0 0 133 0 133 48 47 c26 26 53 47 59 47
7 0 67 -81 134 -180 l122 -180 104 0 c81 0 102 3 97 13 -5 6 -78 111 -164 232
-86 121 -160 226 -164 234 -6 9 36 58 150 172 l159 159 -106 0 -107 0 -157
-165 c-86 -91 -161 -165 -166 -165 -5 0 -9 74 -9 165 l0 165 -80 0 -80 0 0
-405z"/>
<path d="M6270 536 c-84 -15 -105 -28 -132 -79 -19 -36 -23 -58 -23 -147 0
-114 10 -143 60 -176 29 -19 112 -22 143 -5 45 24 67 71 67 143 0 78 -19 112
-79 142 -46 22 -93 16 -136 -20 -35 -30 -40 -17 -16 41 20 46 53 65 132 75 38
5 74 15 82 24 15 15 14 16 -8 15 -14 0 -54 -6 -90 -13z m48 -166 c56 -56 51
-154 -9 -205 -94 -78 -207 45 -155 169 30 71 111 89 164 36z"/>
<path d="M4770 532 c0 -4 7 -17 15 -29 30 -42 111 -38 135 7 16 30 3 39 -16
12 -21 -30 -88 -31 -106 -2 -13 20 -28 27 -28 12z"/>
<path d="M339 413 c-43 -26 -63 -70 -63 -138 1 -106 50 -159 148 -158 57 1 93
23 118 74 37 72 10 192 -51 223 -39 21 -119 20 -152 -1z m147 -34 c64 -60 52
-194 -22 -227 -47 -22 -83 -15 -121 23 -35 35 -35 37 -31 104 4 72 20 103 63
122 30 13 85 2 111 -22z"/>
<path d="M751 404 c-30 -25 -31 -25 -31 -5 0 12 -6 21 -15 21 -13 0 -15 -29
-15 -205 0 -176 2 -205 15 -205 12 0 15 15 15 75 0 41 2 75 5 75 3 0 20 -10
36 -23 37 -27 105 -28 144 -3 40 27 69 99 62 157 -12 96 -55 139 -141 139 -33
0 -52 -6 -75 -26z m138 -20 c52 -44 62 -128 23 -196 -42 -72 -145 -62 -178 18
-54 130 59 259 155 178z"/>
<path d="M1139 413 c-43 -26 -63 -70 -63 -138 1 -106 50 -159 148 -158 57 1
93 23 118 74 37 72 10 192 -51 223 -39 21 -119 20 -152 -1z m147 -34 c64 -60
52 -194 -22 -227 -47 -22 -83 -15 -121 23 -35 35 -35 37 -31 104 4 72 20 103
63 122 30 13 85 2 111 -22z"/>
<path d="M2491 404 c-30 -25 -31 -25 -31 -5 0 12 -6 21 -15 21 -13 0 -15 -29
-15 -205 0 -176 2 -205 15 -205 12 0 15 15 15 75 0 41 2 75 5 75 3 0 20 -10
36 -23 37 -27 105 -28 144 -3 40 27 69 99 62 157 -12 96 -55 139 -141 139 -33
0 -52 -6 -75 -26z m138 -20 c52 -44 62 -128 23 -196 -42 -72 -145 -62 -178 18
-54 130 59 259 155 178z"/>
<path d="M3619 413 c-43 -26 -63 -70 -63 -138 1 -106 50 -159 148 -158 57 1
93 23 118 74 37 72 10 192 -51 223 -39 21 -119 20 -152 -1z m147 -34 c64 -60
52 -194 -22 -227 -47 -22 -83 -15 -121 23 -35 35 -35 37 -31 104 4 72 20 103
63 122 30 13 85 2 111 -22z"/>
<path d="M4379 413 c-43 -26 -63 -70 -63 -138 1 -106 50 -159 148 -158 57 1
93 23 118 74 37 72 10 192 -51 223 -39 21 -119 20 -152 -1z m147 -34 c64 -60
52 -194 -22 -227 -47 -22 -83 -15 -121 23 -35 35 -35 37 -31 104 4 72 20 103
63 122 30 13 85 2 111 -22z"/>
<path d="M5779 413 c-43 -26 -63 -70 -63 -138 1 -106 50 -159 148 -158 57 1
93 23 118 74 37 72 10 192 -51 223 -39 21 -119 20 -152 -1z m147 -34 c64 -60
52 -194 -22 -227 -47 -22 -83 -15 -121 23 -35 35 -35 37 -31 104 4 72 20 103
63 122 30 13 85 2 111 -22z"/>
<path d="M6930 392 c-117 -116 -10 -326 138 -270 33 12 82 66 82 89 0 19 -31
7 -40 -15 -20 -55 -104 -75 -152 -36 -24 18 -52 93 -40 105 3 3 56 5 119 5
l113 0 0 30 c0 74 -57 130 -133 130 -44 0 -54 -4 -87 -38z m150 -9 c16 -16 33
-43 36 -60 l7 -33 -102 0 c-96 0 -101 1 -101 21 0 11 8 34 17 49 32 56 96 65
143 23z"/>
<path d="M7316 409 c-40 -32 -56 -71 -56 -140 0 -74 24 -120 73 -140 39 -16
95 -16 126 0 23 13 61 67 61 89 0 24 -28 12 -40 -18 -27 -66 -97 -80 -152 -31
-28 25 -32 35 -36 92 -3 55 0 69 20 99 45 66 134 64 166 -3 7 -15 20 -27 28
-27 23 0 8 40 -27 73 -24 22 -38 27 -83 27 -39 0 -60 -6 -80 -21z"/>
<path d="M0 270 c0 -192 18 -203 22 -12 l3 137 82 3 c115 4 105 22 -12 22
l-95 0 0 -150z"/>
<path d="M1526 343 c-10 -108 -32 -184 -57 -190 -16 -5 -19 -14 -19 -64 0 -46
3 -59 15 -59 11 0 15 12 15 45 l0 45 125 0 125 0 0 -45 c0 -33 4 -45 15 -45
12 0 15 13 15 60 0 53 -2 60 -20 60 -19 0 -20 7 -20 135 l0 135 -94 0 -94 0
-6 -77z m164 -68 l0 -125 -85 0 c-47 0 -85 2 -85 4 0 2 7 22 15 46 8 23 18 77
21 121 l7 79 63 0 64 0 0 -125z"/>
<path d="M2060 410 c0 -6 27 -10 60 -10 l60 0 0 -140 c0 -118 2 -140 15 -140
13 0 15 22 15 140 l0 140 55 0 c30 0 55 5 55 10 0 6 -50 10 -130 10 -80 0
-130 -4 -130 -10z"/>
<path d="M2810 415 c0 -3 25 -67 55 -141 30 -75 55 -144 55 -155 0 -50 -51
-102 -81 -83 -7 4 -10 -1 -7 -12 2 -11 13 -20 25 -22 47 -7 72 39 184 341 26
69 27 78 12 75 -13 -2 -31 -39 -62 -126 -24 -67 -47 -120 -50 -116 -3 3 -27
58 -52 122 -30 77 -51 118 -62 120 -9 2 -17 1 -17 -3z"/>
<path d="M3216 343 c-10 -108 -32 -184 -57 -190 -16 -5 -19 -14 -19 -64 0 -46
3 -59 15 -59 11 0 15 12 15 45 l0 45 125 0 125 0 0 -45 c0 -33 4 -45 15 -45
12 0 15 13 15 60 0 53 -2 60 -20 60 -19 0 -20 7 -20 135 l0 135 -94 0 -94 0
-6 -77z m164 -68 l0 -125 -85 0 c-47 0 -85 2 -85 4 0 2 7 22 15 46 8 23 18 77
21 121 l7 79 63 0 64 0 0 -125z"/>
<path d="M3960 269 l0 -151 101 4 c96 4 103 5 125 31 32 38 30 72 -5 108 -27
27 -28 30 -11 39 35 19 33 88 -4 112 -6 4 -55 8 -108 8 l-98 0 0 -151z m184
118 c26 -19 18 -68 -14 -84 -14 -7 -51 -13 -82 -13 l-58 0 0 55 0 55 68 0 c40
0 75 -5 86 -13z m4 -133 c14 -10 22 -26 22 -44 0 -43 -31 -60 -112 -60 l-68 0
0 60 0 60 68 0 c45 0 75 -5 90 -16z"/>
<path d="M4730 269 c0 -148 0 -150 22 -147 15 2 44 40 102 132 l81 129 3 -132
c2 -107 5 -131 17 -131 13 0 15 25 15 150 0 149 0 150 -22 150 -18 -1 -38 -26
-98 -121 -41 -66 -78 -123 -82 -125 -4 -3 -8 51 -8 120 0 105 -2 126 -15 126
-13 0 -15 -23 -15 -151z"/>
<path d="M5376 343 c-10 -108 -32 -184 -57 -190 -16 -5 -19 -14 -19 -64 0 -46
3 -59 15 -59 11 0 15 12 15 45 l0 45 125 0 125 0 0 -45 c0 -33 4 -45 15 -45
12 0 15 13 15 60 0 53 -2 60 -20 60 -19 0 -20 7 -20 135 l0 135 -94 0 -94 0
-6 -77z m164 -68 l0 -125 -85 0 c-47 0 -85 2 -85 4 0 2 7 22 15 46 8 23 18 77
21 121 l7 79 63 0 64 0 0 -125z"/>
<path d="M6558 305 c-6 -123 -21 -165 -58 -165 -11 0 -20 -4 -20 -10 0 -12 50
-13 66 -2 25 16 36 59 41 163 l6 109 63 0 64 0 0 -140 c0 -118 2 -140 15 -140
13 0 15 23 15 150 l0 150 -94 0 -93 0 -5 -115z"/>
<path d="M7600 410 c0 -6 27 -10 60 -10 l60 0 0 -140 c0 -118 2 -140 15 -140
13 0 15 22 15 140 l0 140 55 0 c30 0 55 5 55 10 0 6 -50 10 -130 10 -80 0
-130 -4 -130 -10z"/>
<path d="M7970 269 c0 -148 0 -150 22 -147 15 2 44 40 102 132 l81 129 3 -132
c2 -107 5 -131 17 -131 13 0 15 25 15 150 0 149 0 150 -22 150 -18 -1 -38 -26
-98 -121 -41 -66 -78 -123 -82 -125 -4 -3 -8 51 -8 120 0 105 -2 126 -15 126
-13 0 -15 -23 -15 -151z"/>
</g>
</svg>
